<svg xmlns="http://www.w3.org/2000/svg" version="1.2" viewBox="0.4 0.2 369.6 190.8"><style>.a{fill:#ec1c24}.b{fill:#f6921e}.c{fill:#1998d5}.d{fill:#00652e}</style><path class="a" d="m178.6 6.6c92.5 0 176.9 57.2 191.4 132.3-14.6-78.6-94.7-138.7-191.4-138.7-79.6 0-148.4 41.5-178.2 99.8h8.2c29.3-54.7 94.6-93.4 170-93.4z"/><path class="b" d="m178.6 16.7c86.4 0 165.3 53.1 179.7 122.9-14.4-73.1-89.4-128.9-179.7-128.9-73.1 0-136.1 36.6-165.1 89.3h7.9c28.5-49.3 88.2-83.3 157.2-83.3z"/><path class="c" d="m178.6 26.5c80.4 0 154.2 49 168.4 113.8-14.3-67.9-84.3-119.5-168.4-119.5-66.8 0-124.2 31.8-152.4 79.2h7.6c27.6-44.1 81.8-73.5 144.8-73.5z"/><path class="d" d="m178.6 35.9c74.3 0 142.6 44.9 156.7 104.4-14.2-62.4-79-109.6-156.7-109.6-60.2 0-112.1 27.5-139.3 69.3h7.2c26.6-38.7 75.5-64.1 132.1-64.1z"/><path fill-rule="evenodd" class="d" d="m2.7 162.2q3.8-1 4.6-4.7 0.9-3.8 0.9-14.1v-28.6q0-6.4-4.6-7.1v-0.7l11.1 0.7h12.1q8.2 0 13.6 1.1 5.3 1.1 12.7 6.5 7.5 5.4 7.5 18.7 0 13.1-6.4 19.3-6.4 6.1-12.2 7.9-5.7 1.7-13.8 1.7l-14.6-0.5-10.9 0.5zm14.6-18.8q0 12.4 1.4 15 1.5 2.5 9.3 2.5 10.6 0 16.3-6.7 5.7-6.8 5.7-19.5 0-13.2-5.7-19.2-5.8-6.1-18.1-6.1l-8.9 0.4z"/><path class="d" d="m64.7 162q3.5-1.1 4.3-4.3 0.9-3.2 0.9-11.8v-2.7-30q0-5-0.8-6.7-0.7-1.8-3.7-1.8v-0.7q2.6 0 5.4-0.8 2.9-0.8 7-2.3l-0.4 16.1v12.5q1.7-5.9 5.8-9 4.2-3.1 10.3-3.1 8.6 0 12.5 5.1 4 5.1 4 15.6v5.1 2.3 0.9q0 6.8 0.4 10.6 0.5 3.7 4.7 5v0.6h-8.8-9.3v-0.6q3.4-1.1 4.3-4.4 0.9-3.3 0.9-11.7v-2.7-4.4q0-18.8-11.1-18.8-6.1 0-9.8 5-3.6 5-3.6 13.9v4.3 2.3q0 7.4 0.4 11.3 0.5 4 4.7 5.2v0.6h-8.8-9.3c0 0 0-0.6 0-0.6z"/><path fill-rule="evenodd" class="d" d="m153.2 162.6q-1-1.8-1.7-3.9-0.7-2.2-1.2-4.3-2.4 4.4-6.4 6.8-4 2.4-9.2 2.4-7.2 0-11.7-3.9-4.5-3.9-4.5-10 0-6.9 7.9-10.6 7.9-3.7 23.4-3.7h0.5q0-8.4-3-12.4-3-4-9.5-4-5.8 0-9.7 3.3-3.8 3.4-4.6 8.9h-0.4l-2.6-9.2q8.1-4.6 18.5-4.6 8.6 0 12.8 3.1 4.2 3.1 5.2 6.5 1 3.4 1 9.2v11.1q0 7.3 1.2 10.7 1.2 3.4 4 4.1v0.5zm-6-25.5q-9.5 0-14.6 3.5-5 3.4-5 9.7 0 5 2.6 7.9 2.6 2.8 7.2 2.9 7.1-0.1 10-5.2 2.9-5.1 3-15.9v-2.8z"/><path class="d" d="m165 162q3.5-1.1 4.3-4.2 0.8-3 0.8-11v-3.5-12.3q0-4.3-0.4-6.5-0.4-2.2-4-2.2v-0.7q5.3-0.8 11.5-3v12.5q3.9-13.6 16.7-13.6 8.5 0 12.4 5 4 5.1 4 15.6v5 2.4q0 7.3 0.4 11.3 0.4 3.9 4.8 5.2v0.7h-8.8-9.4v-0.7q3.5-1.1 4.3-4.2 0.9-3.2 0.9-11.1v-3.5-4.4q0-18.8-11.2-18.8-6 0-9.7 5.1-3.6 5-3.6 13.8v4.2 2.6q0 7.3 0.5 11.2 0.5 3.9 4.6 5.1v0.7h-8.8-9.3v-0.7z"/><path fill-rule="evenodd" class="d" d="m253.5 162.6q-1-1.8-1.7-3.9-0.8-2.2-1.3-4.3-2.3 4.4-6.3 6.8-4 2.4-9.2 2.4-7.3 0-11.7-3.9-4.5-3.9-4.5-10 0-6.9 7.9-10.6 7.9-3.7 23.4-3.7h0.5q0-8.4-3-12.4-3.1-4-9.6-4-5.7 0-9.6 3.3-3.8 3.4-4.6 8.9h-0.4l-2.6-9.2q8.1-4.6 18.4-4.6 8.7 0 12.9 3.1 4.2 3.1 5.2 6.5 1 3.4 1 9.2v11.1q0 7.3 1.2 10.7 1.2 3.4 4 4.1v0.5zm-6-25.5q-9.5 0-14.6 3.5-5 3.4-5 9.7 0 5 2.6 7.9 2.6 2.8 7.1 2.9 7.2-0.1 10.1-5.2 2.9-5.1 2.9-15.9v-2.8z"/><path class="d" d="m265.1 162q3.5-1.1 4.3-4.4 0.9-3.3 0.9-12.1v-3.8-26.9q0-5-0.4-7.3-0.4-2.4-4.1-2.4v-0.8q2.7-0.3 5.9-1.2 3.2-0.8 6.6-2.1l-0.3 16.2v19.8l9.9-8.8q6-5.6 6-7.8 0-1.4-2.3-2.1v-0.5h8.1 9.4v0.6q-5.1 1.1-8.6 3.3-3.5 2.1-8.9 6.6l-9.6 7.5q6 0 9.3 2.2 3.4 2.2 6.6 7.3 3.3 5 6.5 9.7 3.5 4.8 7.5 7v0.7h-7.5-6.5q-3.7-6.7-7.2-13-3.5-6.3-5.6-8.8-2.2-2.6-4.2-2.6-1.7 0-2.3 1.3-0.6 1.4-0.6 4.4 0 9.8 0.9 13.3 0.9 3.6 4.4 4.7v0.7h-9.3-9v-0.7z"/><path class="d" d="m8.4 182q0.3 0 0.7 0 0.4 0 1.6 0h1.8q0.5 0 1.1 0 0.6 0 1.2 0v-4.7q0-0.8-0.3-1.2-0.3-0.5-1-0.6v-0.4q0.8 0.1 1.6 0.1 0.8 0 1.6 0 0.8 0 1.6 0 0.8 0 1.6-0.1v0.4q-0.7 0.1-1 0.5-0.3 0.5-0.3 1.3v7.9q0 3 0.3 4 0.4 0.9 1.3 1.1v0.3q-0.7 0-1.5 0-0.7 0-2 0-1.2 0-2 0-0.8 0-1.5 0v-0.3q1-0.2 1.3-1.1 0.3-0.8 0.3-4v-2.3q-0.3 0-0.8-0.1-0.5 0-1.5 0h-1.8q-1 0-1.5 0-0.5 0.1-0.8 0.1v2.3q0 3.1 0.3 4 0.4 0.9 1.3 1.1v0.3q-0.7 0-1.5 0-0.8-0.1-2.1 0-1.2-0.1-2 0-0.7 0-1.4 0v-0.3q1-0.2 1.3-1.1 0.3-0.8 0.3-4v-7.9q0-0.8-0.3-1.2-0.3-0.4-1-0.6v-0.4q0.8 0.1 1.5 0.1 0.8 0 1.6 0 0.9 0 1.7 0 0.8 0 1.7-0.1v0.4q-0.8 0.1-1.1 0.5-0.3 0.5-0.3 1.3v4.7z"/><path class="d" d="m22.4 190.6v-0.3q0.9-0.2 1.3-1.1 0.3-0.8 0.3-4v-7.8q0-0.8-0.3-1.3-0.3-0.4-1-0.6v-0.3q0 0 0.1 0 2.3 0 3.5 0h9.3l1.3 4-0.4 0.1q-1.4-1.7-3.2-2.5-1.8-0.7-4.1-0.7-0.6 0-0.8 0-0.3 0-0.5 0v5.9q0.3 0 0.7 0 0.3 0.1 0.7 0.1 2 0 3.3-0.7 1.3-0.7 1.6-1.9h0.3v5.9h-0.3q-0.4-1.3-1.6-1.9-1.3-0.7-3.3-0.7-0.6 0-0.9 0-0.3 0-0.5 0v2.2q0 3.2 0.5 4 0.5 0.7 2.1 0.7 2 0 3.7-1 1.8-1.1 3.3-3.3l0.4 0.2-1.4 5h-9.3q-0.2 0-0.7 0-0.5 0-0.8 0-0.9 0-1.7 0-0.8 0-1.6 0z"/><path fill-rule="evenodd" class="d" d="m39.4 190.6v-0.3q0.8-0.3 1.6-1.5 0.9-1.2 2.1-3.6l5-10.4h0.2l5.3 10.3q1.6 3.2 2.3 4.2 0.7 1 1.3 1v0.3q-0.6 0-1.3 0-0.7 0-1.8 0-1.4 0-2.3 0-1 0-1.9 0v-0.3q0.6 0 0.8-0.3 0.2-0.2 0.2-0.6 0-0.4-0.3-1.2-0.2-0.9-0.8-2l-0.8-1.7h-4.5l-0.4 0.8q-0.5 1.3-0.8 2.1-0.3 0.8-0.3 1.3 0 0.7 0.5 1.1 0.4 0.5 1.2 0.6l-0.1 0.2q-0.5 0-1.1 0-0.6 0-1.5 0-1 0-1.5 0-0.6 0-1.1 0zm9.3-6.9l-1.9-4.2-2 4.2z"/><path class="d" d="m59 190.6v-0.3q0.9-0.2 1.3-1.1 0.3-0.8 0.3-4v-7.9q0-0.8-0.3-1.2-0.3-0.4-1-0.6v-0.4q0.7 0.1 1.5 0.1 0.8 0 1.6 0 0.9 0 1.7 0 0.8 0 1.7-0.1v0.4q-0.8 0.1-1.1 0.5-0.3 0.5-0.3 1.3v7.7q0 3.2 0.5 4 0.6 0.7 2.2 0.7 1.9 0 3.6-1.1 1.8-1.1 3.2-3.3l0.3 0.1-1.4 5.2h-9q-0.2 0-0.8 0-0.5-0.1-0.7-0.1-0.9 0.1-1.7 0.1-0.8 0-1.6 0z"/><path class="d" d="m75.7 179.5l1-4.3h14.1l1 4.3-0.3 0.1q-1.1-1.7-2.4-2.6-1.3-1-2.3-1-0.7 0-0.9 0.4-0.3 0.4-0.3 2.2v6.6q0 3.1 0.4 4 0.3 0.9 1.3 1.1v0.3q-0.8 0-1.5 0-0.8-0.1-2.2 0-1.2-0.1-2 0-0.7 0-1.4 0v-0.3q0.9-0.2 1.3-1.1 0.3-0.8 0.3-4v-6.6q0-1.8-0.2-2.2-0.2-0.4-0.9-0.4-1 0-2.3 0.9-1.3 1-2.5 2.7z"/><path class="d" d="m99.2 182q0.3 0 0.7 0 0.4 0 1.6 0h1.8q0.5 0 1.1 0 0.6 0 1.2 0v-4.7q0-0.8-0.3-1.2-0.3-0.5-1-0.6v-0.4q0.8 0.1 1.6 0.1 0.8 0 1.6 0 0.8 0 1.6 0 0.8 0 1.6-0.1v0.4q-0.7 0.1-1 0.5-0.3 0.5-0.3 1.3v7.9q0 3 0.3 4 0.4 0.9 1.3 1.1v0.3q-0.7 0-1.5 0-0.7 0-2 0-1.3 0-2 0-0.8 0-1.5 0v-0.3q1-0.2 1.3-1.1 0.3-0.8 0.3-4v-2.3q-0.3 0-0.8-0.1-0.5 0-1.5 0h-1.8q-1 0-1.5 0-0.5 0.1-0.8 0.1v2.3q0 3.1 0.3 4 0.4 0.9 1.3 1.1v0.3q-0.7 0-1.5 0-0.8-0.1-2.1 0-1.2-0.1-2 0-0.7 0-1.4 0v-0.3q1-0.2 1.3-1.1 0.3-0.8 0.3-4v-7.9q0-0.8-0.3-1.2-0.3-0.4-1-0.6v-0.4q0.8 0.1 1.5 0.1 0.8 0 1.6 0 0.9 0 1.7 0 0.8 0 1.7-0.1v0.4q-0.8 0.1-1.1 0.5-0.3 0.5-0.3 1.3v4.7z"/><path class="d" d="m138.4 188.9q-1.5 1-3.1 1.6-1.7 0.5-3.7 0.5-1.7 0-3.3-0.5-1.5-0.6-2.7-1.6-1.3-1.2-2-2.6-0.6-1.5-0.6-3.5 0-3.6 2.4-5.8 2.5-2.2 6.5-2.2 1.6 0 3.2 0.4 1.5 0.5 2.9 1.3l-1.1 3.8-0.3-0.1q-0.4-2.3-1.5-3.4-1.1-1.2-3-1.2-2.2 0-3.5 1.9-1.3 1.9-1.3 5.2 0 3.5 1.3 5.5 1.3 2 3.6 2 1.9 0 3.1-1.3 1.1-1.3 1.5-4l0.3-0.1z"/><path fill-rule="evenodd" class="d" d="m140.5 190.6v-0.3q0.8-0.3 1.6-1.5 0.9-1.2 2.1-3.6l5-10.4h0.2l5.3 10.3q1.6 3.2 2.3 4.2 0.7 1 1.3 1v0.3q-0.6 0-1.3 0-0.7 0-1.8 0-1.4 0-2.3 0-1 0-1.9 0v-0.3q0.6 0 0.8-0.3 0.2-0.2 0.2-0.6 0-0.4-0.3-1.2-0.2-0.9-0.8-2l-0.8-1.7h-4.5l-0.4 0.8q-0.5 1.3-0.8 2.1-0.3 0.8-0.3 1.3 0 0.7 0.5 1.1 0.4 0.5 1.2 0.6l-0.1 0.2q-0.5 0-1.1 0-0.6 0-1.5 0-1 0-1.5 0-0.6 0-1.1 0zm9.3-6.9l-1.9-4.2-1.9 4.2z"/><path fill-rule="evenodd" class="d" d="m165.5 185.2q0 3.1 0.3 4 0.3 0.9 1.3 1.1v0.3q-0.7 0-1.5 0-0.8 0-2.1 0-1.2 0-2 0-0.7 0-1.4 0v-0.3q0.9-0.2 1.3-1.1 0.3-0.8 0.3-4v-7.8q0-0.8-0.3-1.3-0.3-0.4-1-0.6v-0.3q0.8 0 1.7 0 0.8 0 1.9 0h2.4q4.9 0 6.8 0.9 1.9 0.8 1.9 2.9 0 1.6-1.5 2.5-1.5 1-4.1 1.1 1.9 0.1 2.9 0.9 1.1 0.8 1.8 2.6 0.1 0.2 0.3 0.7 1.1 3 2.4 3.5v0.3q-1.1 0-2.3 0-1.2 0-3.1 0-0.5-1-1-3-0.6-2-1.1-2.9-0.5-1-1.4-1.4-0.8-0.5-2-0.5-0.1 0-0.3 0-0.2 0-0.2 0c0 0 0 2.4 0 2.4zm-0.1-3.2q0.2 0 0.6 0 0.8 0 1 0 1.9 0 2.9-0.8 1-0.8 1-2.2 0-1.5-1-2.3-1-0.7-3-0.7-0.5 0-0.9 0-0.3 0-0.6 0v6z"/><path class="d" d="m178.7 190.6v-0.3q0.9-0.2 1.3-1.1 0.3-0.8 0.3-4v-7.8q0-0.8-0.3-1.3-0.3-0.4-1-0.6v-0.3q0 0 0.1 0 2.4 0 3.5 0h9.3l1.3 4-0.4 0.1q-1.4-1.7-3.1-2.5-1.8-0.7-4.2-0.7-0.6 0-0.8 0-0.3 0-0.5 0v5.9q0.4 0 0.7 0 0.4 0.1 0.7 0.1 2 0 3.3-0.7 1.3-0.7 1.6-1.9h0.3v5.9h-0.3q-0.4-1.3-1.6-1.9-1.3-0.7-3.3-0.7-0.6 0-0.9 0-0.3 0-0.5 0v2.2q0 3.2 0.5 4 0.5 0.7 2.1 0.7 2 0 3.8-1 1.7-1.1 3.3-3.3l0.3 0.2-1.4 5h-9.3q-0.2 0-0.7 0-0.5 0-0.8 0-0.9 0-1.7 0-0.8 0-1.6 0z"/><path class="d" d="m221.3 188.9q-1.4 1-3.1 1.6-1.7 0.5-3.7 0.5-1.7 0-3.3-0.5-1.5-0.6-2.7-1.6-1.3-1.2-2-2.6-0.6-1.5-0.6-3.5 0-3.6 2.4-5.8 2.5-2.2 6.5-2.2 1.6 0 3.2 0.4 1.5 0.5 2.9 1.3l-1.1 3.8-0.3-0.1q-0.4-2.3-1.5-3.4-1.1-1.2-2.9-1.2-2.3 0-3.6 1.9-1.3 1.9-1.3 5.2 0 3.5 1.3 5.5 1.3 2 3.6 2 2 0 3.1-1.3 1.1-1.3 1.5-4l0.4-0.1z"/><path class="d" d="m223.8 190.6v-0.3q0.9-0.2 1.3-1.1 0.3-0.8 0.3-4v-7.8q0-0.8-0.3-1.3-0.3-0.4-1-0.6v-0.3q0 0 0.1 0 2.4 0 3.5 0h9.3l1.3 4-0.3 0.1q-1.4-1.7-3.2-2.5-1.8-0.7-4.2-0.7-0.6 0-0.8 0-0.3 0-0.5 0v5.9q0.4 0 0.7 0 0.4 0.1 0.7 0.1 2 0 3.3-0.7 1.3-0.7 1.6-1.9h0.3v5.9h-0.3q-0.4-1.3-1.6-1.9-1.3-0.7-3.3-0.7-0.6 0-0.9 0-0.3 0-0.5 0v2.2q0 3.2 0.5 4 0.5 0.7 2.1 0.7 2 0 3.7-1 1.8-1.1 3.3-3.3l0.4 0.2-1.4 5h-9.3q-0.2 0-0.7 0-0.5 0-0.8 0-0.9 0-1.7 0-0.8 0-1.6 0z"/><path class="d" d="m243.8 183.6q0 3.4 0.5 4.8 0.5 1.4 1.8 1.9v0.3q-0.8 0-1.4 0-0.7-0.1-1.2 0-0.6-0.1-1.3 0-0.7 0-1.5 0v-0.3q1.2-0.5 1.7-2 0.5-1.5 0.5-4.7v-4.7q0-1.8-0.3-2.5-0.3-0.6-1.2-0.9v-0.3q1.1 0 1.8 0 0.6 0 1.2 0 0.3 0 1.1 0 0.7 0 1 0 1.7 1.9 3.7 4.1 2 2.2 5.1 5.3v-2.4q0-3.8-0.5-5-0.5-1.2-1.9-1.7v-0.3q0.8 0 1.5 0 0.6 0 1.2 0 0.6 0 1.3 0 0.7 0 1.5 0v0.2q-1.3 0.7-1.8 1.8-0.5 1.2-0.5 5v8.6l-0.5 0.2q-3-3.4-6-6.7-2.9-3.3-5.8-6.4v5.7z"/><path class="d" d="m259.7 179.5l1-4.3h14.1l1 4.3-0.2 0.1q-1.2-1.7-2.5-2.6-1.3-1-2.3-1-0.7 0-0.9 0.4-0.3 0.4-0.3 2.2v6.6q0.1 3.1 0.4 4 0.3 0.9 1.3 1.1v0.3q-0.7 0-1.5 0-0.8-0.1-2.2 0-1.2-0.1-1.9 0-0.8 0-1.5 0v-0.3q1-0.2 1.3-1.1 0.3-0.8 0.3-4v-6.6q0-1.8-0.2-2.2-0.2-0.4-0.9-0.4-1 0-2.3 0.9-1.3 1-2.5 2.7z"/><path class="d" d="m277.8 190.6v-0.3q1-0.2 1.3-1.1 0.3-0.8 0.3-4v-7.8q0-0.8-0.3-1.3-0.3-0.4-1-0.6v-0.3q0.1 0 0.1 0 2.4 0 3.5 0h9.3l1.3 4-0.3 0.1q-1.4-1.7-3.2-2.5-1.8-0.7-4.2-0.7-0.5 0-0.8 0-0.3 0-0.5 0v5.9q0.4 0 0.7 0 0.4 0.1 0.7 0.1 2 0 3.3-0.7 1.3-0.7 1.7-1.9h0.3v5.9h-0.3q-0.4-1.3-1.7-1.9-1.3-0.7-3.3-0.7-0.6 0-0.9 0-0.3 0-0.5 0v2.2q0 3.2 0.5 4 0.5 0.7 2.1 0.7 2 0 3.8-1 1.7-1.1 3.3-3.3l0.4 0.2-1.5 5h-9.3q-0.2 0-0.7 0-0.5 0-0.8 0-0.9 0-1.7 0-0.8 0-1.6 0z"/><path fill-rule="evenodd" class="d" d="m300.6 185.2q0 3.1 0.3 4 0.4 0.9 1.3 1.1v0.3q-0.7 0-1.5 0-0.8 0-2.1 0-1.2 0-1.9 0-0.8 0-1.4 0v-0.3q0.9-0.2 1.2-1.1 0.3-0.8 0.3-4v-7.8q0-0.8-0.3-1.3-0.2-0.4-1-0.6v-0.3q0.9 0 1.7 0 0.8 0 1.9 0h2.4q5 0 6.8 0.9 1.9 0.8 1.9 2.9 0 1.6-1.5 2.5-1.4 1-4 1.1 1.8 0.1 2.9 0.9 1 0.8 1.7 2.6 0.1 0.2 0.3 0.7 1.1 3 2.4 3.5v0.3q-1.1 0-2.3 0-1.2 0-3.1 0-0.5-1-1-3-0.6-2-1.1-2.9-0.5-1-1.4-1.4-0.8-0.5-2-0.5-0.1 0-0.3 0-0.1 0-0.2 0c0 0 0 2.4 0 2.4zm0-3.2q0.2 0 0.5 0 0.8 0 1.1 0 1.8 0 2.8-0.8 1.1-0.8 1.1-2.2 0-1.5-1.1-2.3-1-0.7-3-0.7-0.5 0-0.8 0-0.3 0-0.6 0c0 0 0 6 0 6z"/></svg>